<svg version="1.1" xmlns="http://www.w3.org/2000/svg" viewBox="0 0 1370.98828125 307.017578125" width="2741.9765625" height="614.03515625">
  <!-- svg-source:excalidraw -->
  
  <defs>
    <style class="style-fonts">
      @font-face {
        font-family: "Virgil";
        src: url("https://excalidraw.com/Virgil.woff2");
      }
      @font-face {
        font-family: "Cascadia";
        src: url("https://excalidraw.com/Cascadia.woff2");
      }
    </style>
  </defs>
  <g stroke-linecap="round" transform="translate(1162.98828125 48.732421875) rotate(0 99 106)"><path d="M9.22 15.96 C9.22 15.96, 9.22 15.96, 9.22 15.96 M9.22 15.96 C9.22 15.96, 9.22 15.96, 9.22 15.96 M6.99 24.62 C10.73 20.31, 14.48 16, 20.76 8.77 M6.99 24.62 C11.57 19.35, 16.15 14.08, 20.76 8.77 M3.44 34.79 C11.78 25.2, 20.13 15.6, 29.69 4.61 M3.44 34.79 C11.43 25.6, 19.42 16.42, 29.69 4.61 M3.18 41.19 C15.9 26.56, 28.62 11.93, 37.95 1.19 M3.18 41.19 C14.7 27.94, 26.22 14.69, 37.95 1.19 M0.95 49.85 C12.94 36.06, 24.93 22.27, 43.6 0.8 M0.95 49.85 C12.4 36.68, 23.86 23.51, 43.6 0.8 M0.69 56.25 C17.51 36.91, 34.32 17.56, 49.24 0.4 M0.69 56.25 C15.24 39.52, 29.78 22.79, 49.24 0.4 M0.43 62.65 C13.83 47.23, 27.24 31.81, 54.88 0.01 M0.43 62.65 C11.38 50.06, 22.32 37.46, 54.88 0.01 M0.82 68.29 C21.56 44.44, 42.3 20.59, 59.87 0.37 M0.82 68.29 C19.05 47.33, 37.27 26.36, 59.87 0.37 M0.56 74.69 C20.23 52.07, 39.89 29.45, 65.51 -0.03 M0.56 74.69 C25.43 46.08, 50.3 17.47, 65.51 -0.03 M0.96 80.33 C21.63 56.55, 42.3 32.77, 70.5 0.33 M0.96 80.33 C27.01 50.37, 53.06 20.4, 70.5 0.33 M0.7 86.73 C21.09 63.27, 41.49 39.81, 76.14 -0.06 M0.7 86.73 C22.61 61.52, 44.52 36.32, 76.14 -0.06 M1.09 92.37 C31.62 57.26, 62.14 22.14, 81.13 0.3 M1.09 92.37 C29.81 59.34, 58.53 26.3, 81.13 0.3 M0.83 98.77 C35.03 59.43, 69.23 20.09, 86.77 -0.1 M0.83 98.77 C26.2 69.59, 51.57 40.4, 86.77 -0.1 M0.57 105.17 C35.22 65.31, 69.87 25.45, 91.76 0.26 M0.57 105.17 C25.01 77.05, 49.46 48.93, 91.76 0.26 M0.96 110.81 C26.46 81.48, 51.95 52.15, 97.4 -0.13 M0.96 110.81 C36.08 70.41, 71.2 30.01, 97.4 -0.13 M0.7 117.21 C36.21 76.36, 71.72 35.52, 102.39 0.23 M0.7 117.21 C36.74 75.75, 72.79 34.28, 102.39 0.23 M1.1 122.85 C30.84 88.64, 60.58 54.43, 108.03 -0.16 M1.1 122.85 C39.54 78.62, 77.99 34.4, 108.03 -0.16 M0.83 129.25 C37.27 87.33, 73.71 45.42, 113.02 0.2 M0.83 129.25 C24.99 101.46, 49.16 73.66, 113.02 0.2 M0.57 135.65 C45.13 84.39, 89.69 33.14, 118.66 -0.2 M0.57 135.65 C40.59 89.62, 80.6 43.59, 118.66 -0.2 M0.97 141.29 C28.25 109.91, 55.53 78.53, 123.65 0.16 M0.97 141.29 C36.97 99.87, 72.98 58.45, 123.65 0.16 M0.71 147.69 C43.12 98.9, 85.53 50.11, 129.29 -0.23 M0.71 147.69 C33.49 109.97, 66.28 72.26, 129.29 -0.23 M1.1 153.33 C45.99 101.7, 90.87 50.06, 134.28 0.13 M1.1 153.33 C51.29 95.6, 101.48 37.86, 134.28 0.13 M0.84 159.73 C33.27 122.42, 65.7 85.12, 139.92 -0.27 M0.84 159.73 C36.46 118.76, 72.07 77.79, 139.92 -0.27 M1.23 165.37 C36.25 125.1, 71.26 84.82, 144.91 0.09 M1.23 165.37 C44.16 116, 87.08 66.62, 144.91 0.09 M2.28 170.26 C33.82 133.98, 65.36 97.71, 149.24 1.21 M2.28 170.26 C58.96 105.07, 115.63 39.87, 149.24 1.21 M3.33 175.15 C48.14 123.61, 92.94 72.08, 154.23 1.57 M3.33 175.15 C39.23 133.86, 75.12 92.57, 154.23 1.57 M3.73 180.79 C55.41 121.34, 107.09 61.89, 159.87 1.17 M3.73 180.79 C47.83 130.06, 91.94 79.32, 159.87 1.17 M4.78 185.68 C57.76 124.74, 110.73 63.8, 164.86 1.53 M4.78 185.68 C39.69 145.52, 74.61 105.35, 164.86 1.53 M6.49 189.82 C50.25 139.48, 94 89.14, 169.19 2.65 M6.49 189.82 C52.15 137.29, 97.81 84.76, 169.19 2.65 M8.19 193.95 C67.19 126.08, 126.19 58.21, 172.21 5.27 M8.19 193.95 C42.43 154.56, 76.67 115.17, 172.21 5.27 M10.56 197.33 C51.02 150.78, 91.49 104.22, 175.88 7.14 M10.56 197.33 C61.74 138.45, 112.93 79.57, 175.88 7.14 M12.92 200.71 C59.24 147.42, 105.56 94.14, 180.21 8.26 M12.92 200.71 C50.46 157.52, 88 114.34, 180.21 8.26 M15.94 203.33 C66.87 144.75, 117.79 86.16, 183.23 10.88 M15.94 203.33 C81.86 127.49, 147.79 51.66, 183.23 10.88 M19.61 205.2 C78.89 137.01, 138.17 68.81, 186.25 13.5 M19.61 205.2 C57.09 162.09, 94.56 118.98, 186.25 13.5 M23.29 207.07 C60.39 164.39, 97.5 121.7, 189.27 16.13 M23.29 207.07 C82.06 139.46, 140.83 71.85, 189.27 16.13 M26.31 209.69 C84.05 143.26, 141.8 76.83, 191.63 19.51 M26.31 209.69 C61.93 168.72, 97.55 127.74, 191.63 19.51 M30.64 210.81 C64.4 171.97, 98.16 133.13, 193.34 23.64 M30.64 210.81 C80.26 153.72, 129.89 96.63, 193.34 23.64 M34.97 211.92 C97.44 140.06, 159.91 68.2, 195.05 27.78 M34.97 211.92 C90.45 148.1, 145.94 84.27, 195.05 27.78 M39.3 213.04 C100.66 142.45, 162.02 71.86, 196.1 32.66 M39.3 213.04 C95.36 148.55, 151.42 84.06, 196.1 32.66 M44.94 212.64 C89.04 161.92, 133.13 111.2, 196.49 38.31 M44.94 212.64 C77.4 175.31, 109.85 137.97, 196.49 38.31 M49.93 213 C100.08 155.31, 150.24 97.61, 197.54 43.19 M49.93 213 C96.81 159.07, 143.69 105.14, 197.54 43.19 M55.57 212.61 C90.88 172, 126.18 131.38, 200.56 45.82 M55.57 212.61 C107.66 152.69, 159.75 92.77, 200.56 45.82 M60.56 212.97 C109.08 157.16, 157.59 101.35, 200.3 52.22 M60.56 212.97 C114.57 150.83, 168.59 88.7, 200.3 52.22 M66.2 212.58 C109.19 163.12, 152.18 113.67, 200.69 57.86 M66.2 212.58 C115.74 155.59, 165.28 98.59, 200.69 57.86 M71.19 212.94 C114.84 162.73, 158.48 112.52, 200.43 64.26 M71.19 212.94 C104.91 174.14, 138.63 135.35, 200.43 64.26 M76.83 212.54 C122.81 159.65, 168.78 106.76, 200.83 69.9 M76.83 212.54 C123.11 159.31, 169.38 106.07, 200.83 69.9 M81.82 212.9 C125.17 163.03, 168.53 113.16, 200.57 76.3 M81.82 212.9 C109.45 181.12, 137.08 149.33, 200.57 76.3 M87.46 212.51 C124.49 169.92, 161.51 127.33, 200.3 82.7 M87.46 212.51 C127.06 166.96, 166.65 121.41, 200.3 82.7 M92.45 212.87 C126.31 173.91, 160.18 134.95, 200.7 88.34 M92.45 212.87 C123.74 176.87, 155.03 140.87, 200.7 88.34 M97.44 213.23 C128.58 177.4, 159.73 141.57, 200.44 94.74 M97.44 213.23 C120.49 186.71, 143.54 160.19, 200.44 94.74 M103.08 212.83 C141.6 168.52, 180.13 124.2, 200.83 100.38 M103.08 212.83 C123.86 188.92, 144.65 165.02, 200.83 100.38 M108.07 213.19 C134.35 182.96, 160.63 152.72, 200.57 106.78 M108.07 213.19 C141.33 174.92, 174.6 136.66, 200.57 106.78 M113.71 212.8 C135.51 187.72, 157.3 162.65, 200.31 113.18 M113.71 212.8 C138.06 184.79, 162.41 156.78, 200.31 113.18 M118.7 213.16 C138.67 190.18, 158.64 167.21, 200.7 118.82 M118.7 213.16 C140.95 187.56, 163.21 161.96, 200.7 118.82 M124.34 212.76 C143.99 190.16, 163.64 167.56, 200.44 125.22 M124.34 212.76 C152.34 180.56, 180.33 148.35, 200.44 125.22 M129.33 213.12 C145.81 194.16, 162.29 175.2, 200.84 130.86 M129.33 213.12 C152.02 187.01, 174.72 160.9, 200.84 130.86 M134.97 212.73 C149.13 196.44, 163.29 180.16, 200.58 137.26 M134.97 212.73 C150.8 194.52, 166.63 176.31, 200.58 137.26 M139.96 213.09 C156.53 194.03, 173.1 174.96, 200.31 143.66 M139.96 213.09 C152.11 199.11, 164.26 185.14, 200.31 143.66 M145.6 212.69 C159.73 196.44, 173.86 180.18, 200.71 149.3 M145.6 212.69 C160.21 195.89, 174.82 179.08, 200.71 149.3 M150.59 213.05 C164.8 196.71, 179 180.37, 200.45 155.7 M150.59 213.05 C164.15 197.45, 177.72 181.85, 200.45 155.7 M156.23 212.66 C171.47 195.12, 186.72 177.59, 200.84 161.34 M156.23 212.66 C169.55 197.34, 182.87 182.02, 200.84 161.34 M162.53 211.51 C175.41 196.69, 188.3 181.87, 199.27 169.25 M162.53 211.51 C170.76 202.05, 178.98 192.58, 199.27 169.25 M168.83 210.36 C179.3 198.31, 189.78 186.26, 197.7 177.15 M168.83 210.36 C180.26 197.21, 191.69 184.07, 197.7 177.15 M178.41 205.44 C183.3 199.82, 188.18 194.19, 198.75 182.04 M178.41 205.44 C186.47 196.16, 194.53 186.89, 198.75 182.04" stroke="#40c057" stroke-width="0.5" fill="none"></path><path d="M49.5 0 M49.5 0 C73.34 0, 97.19 0, 148.5 0 M49.5 0 C79.9 0, 110.29 0, 148.5 0 M148.5 0 C181.5 0, 198 16.5, 198 49.5 M148.5 0 C181.5 0, 198 16.5, 198 49.5 M198 49.5 C198 76.3, 198 103.1, 198 162.5 M198 49.5 C198 79.15, 198 108.8, 198 162.5 M198 162.5 C198 195.5, 181.5 212, 148.5 212 M198 162.5 C198 195.5, 181.5 212, 148.5 212 M148.5 212 C118.35 212, 88.21 212, 49.5 212 M148.5 212 C126.72 212, 104.93 212, 49.5 212 M49.5 212 C16.5 212, 0 195.5, 0 162.5 M49.5 212 C16.5 212, 0 195.5, 0 162.5 M0 162.5 C0 137.13, 0 111.76, 0 49.5 M0 162.5 C0 124.77, 0 87.03, 0 49.5 M0 49.5 C0 16.5, 16.5 0, 49.5 0 M0 49.5 C0 16.5, 16.5 0, 49.5 0" stroke="#000000" stroke-width="1" fill="none"></path></g><g stroke-linecap="round" transform="translate(10 48.994140625) rotate(0 99 106)"><path d="M9.22 15.96 C9.22 15.96, 9.22 15.96, 9.22 15.96 M9.22 15.96 C9.22 15.96, 9.22 15.96, 9.22 15.96 M6.99 24.62 C12.49 18.29, 17.99 11.97, 20.76 8.77 M6.99 24.62 C12.26 18.56, 17.53 12.49, 20.76 8.77 M3.44 34.79 C11.09 25.99, 18.74 17.19, 29.69 4.61 M3.44 34.79 C13.55 23.16, 23.66 11.53, 29.69 4.61 M3.18 41.19 C12.52 30.45, 21.86 19.7, 37.95 1.19 M3.18 41.19 C15.9 26.56, 28.61 11.94, 37.95 1.19 M0.95 49.85 C17.94 30.31, 34.93 10.76, 43.6 0.8 M0.95 49.85 C14.63 34.12, 28.31 18.38, 43.6 0.8 M0.69 56.25 C20.03 34, 39.37 11.76, 49.24 0.4 M0.69 56.25 C19.01 35.18, 37.33 14.1, 49.24 0.4 M0.43 62.65 C11.39 50.04, 22.35 37.43, 54.88 0.01 M0.43 62.65 C20.93 39.06, 41.44 15.48, 54.88 0.01 M0.82 68.29 C13.88 53.28, 26.93 38.27, 59.87 0.37 M0.82 68.29 C21.97 43.96, 43.13 19.63, 59.87 0.37 M0.56 74.69 C21.21 50.94, 41.86 27.19, 65.51 -0.03 M0.56 74.69 C22.99 48.89, 45.42 23.08, 65.51 -0.03 M0.96 80.33 C19.35 59.17, 37.74 38.01, 70.5 0.33 M0.96 80.33 C16.84 62.06, 32.73 43.78, 70.5 0.33 M0.7 86.73 C24.18 59.72, 47.66 32.71, 76.14 -0.06 M0.7 86.73 C27.09 56.37, 53.48 26.01, 76.14 -0.06 M1.09 92.37 C21.25 69.18, 41.42 45.98, 81.13 0.3 M1.09 92.37 C32.14 56.65, 63.19 20.93, 81.13 0.3 M0.83 98.77 C34.31 60.26, 67.79 21.74, 86.77 -0.1 M0.83 98.77 C30.23 64.95, 59.62 31.14, 86.77 -0.1 M0.57 105.17 C18.97 84, 37.37 62.83, 91.76 0.26 M0.57 105.17 C20.29 82.48, 40.01 59.79, 91.76 0.26 M0.96 110.81 C30.53 76.8, 60.1 42.78, 97.4 -0.13 M0.96 110.81 C20.64 88.17, 40.32 65.53, 97.4 -0.13 M0.7 117.21 C34.04 78.85, 67.39 40.49, 102.39 0.23 M0.7 117.21 C38.6 73.62, 76.49 30.02, 102.39 0.23 M1.1 122.85 C29.03 90.72, 56.97 58.58, 108.03 -0.16 M1.1 122.85 C27.55 92.42, 54.01 61.98, 108.03 -0.16 M0.83 129.25 C38.9 85.46, 76.98 41.66, 113.02 0.2 M0.83 129.25 C34.05 91.04, 67.27 52.83, 113.02 0.2 M0.57 135.65 C47.55 81.61, 94.52 27.57, 118.66 -0.2 M0.57 135.65 C37.58 93.08, 74.58 50.51, 118.66 -0.2 M0.97 141.29 C42.75 93.23, 84.53 45.16, 123.65 0.16 M0.97 141.29 C38.4 98.23, 75.84 55.16, 123.65 0.16 M0.71 147.69 C40.03 102.46, 79.35 57.22, 129.29 -0.23 M0.71 147.69 C35.8 107.32, 70.9 66.95, 129.29 -0.23 M1.1 153.33 C45.22 102.58, 89.34 51.82, 134.28 0.13 M1.1 153.33 C40.81 107.65, 80.52 61.97, 134.28 0.13 M0.84 159.73 C45.37 108.51, 89.9 57.28, 139.92 -0.27 M0.84 159.73 C46.28 107.45, 91.73 55.18, 139.92 -0.27 M1.23 165.37 C45.27 114.71, 89.32 64.05, 144.91 0.09 M1.23 165.37 C37.61 123.53, 73.98 81.69, 144.91 0.09 M2.28 170.26 C34.77 132.89, 67.26 95.52, 149.24 1.21 M2.28 170.26 C47.13 118.68, 91.97 67.09, 149.24 1.21 M3.33 175.15 C57.15 113.24, 110.97 51.33, 154.23 1.57 M3.33 175.15 C52.8 118.25, 102.26 61.35, 154.23 1.57 M3.73 180.79 C55.89 120.79, 108.05 60.79, 159.87 1.17 M3.73 180.79 C61.22 114.66, 118.7 48.53, 159.87 1.17 M4.78 185.68 C63.59 118.03, 122.4 50.38, 164.86 1.53 M4.78 185.68 C62.33 119.48, 119.87 53.29, 164.86 1.53 M6.49 189.82 C43.9 146.78, 81.3 103.75, 169.19 2.65 M6.49 189.82 C56.2 132.62, 105.92 75.43, 169.19 2.65 M8.19 193.95 C60.62 133.64, 113.04 73.33, 172.21 5.27 M8.19 193.95 C68.1 125.03, 128.01 56.12, 172.21 5.27 M10.56 197.33 C47.73 154.57, 84.89 111.81, 175.88 7.14 M10.56 197.33 C49.69 152.31, 88.83 107.29, 175.88 7.14 M12.92 200.71 C78.12 125.7, 143.32 50.7, 180.21 8.26 M12.92 200.71 C53.38 154.16, 93.85 107.61, 180.21 8.26 M15.94 203.33 C62.81 149.41, 109.69 95.48, 183.23 10.88 M15.94 203.33 C67.92 143.53, 119.91 83.73, 183.23 10.88 M19.61 205.2 C61.15 157.42, 102.69 109.63, 186.25 13.5 M19.61 205.2 C63.9 154.25, 108.2 103.3, 186.25 13.5 M23.29 207.07 C73.55 149.25, 123.81 91.43, 189.27 16.13 M23.29 207.07 C57.55 167.66, 91.8 128.25, 189.27 16.13 M26.31 209.69 C86.68 140.24, 147.05 70.79, 191.63 19.51 M26.31 209.69 C91.3 134.93, 156.3 60.16, 191.63 19.51 M30.64 210.81 C70.46 165, 110.28 119.19, 193.34 23.64 M30.64 210.81 C68.41 167.35, 106.19 123.9, 193.34 23.64 M34.97 211.92 C82.94 156.74, 130.91 101.56, 195.05 27.78 M34.97 211.92 C92.55 145.69, 150.13 79.45, 195.05 27.78 M39.3 213.04 C71.19 176.35, 103.08 139.67, 196.1 32.66 M39.3 213.04 C74.77 172.23, 110.24 131.43, 196.1 32.66 M44.94 212.64 C76.82 175.98, 108.69 139.31, 196.49 38.31 M44.94 212.64 C102.68 146.22, 160.42 79.8, 196.49 38.31 M49.93 213 C97.38 158.42, 144.83 103.84, 197.54 43.19 M49.93 213 C87.78 169.47, 125.62 125.93, 197.54 43.19 M55.57 212.61 C106.31 154.24, 157.05 95.87, 200.56 45.82 M55.57 212.61 C92.14 170.54, 128.72 128.47, 200.56 45.82 M60.56 212.97 C100.65 166.85, 140.74 120.73, 200.3 52.22 M60.56 212.97 C105.31 161.49, 150.06 110.02, 200.3 52.22 M66.2 212.58 C115.53 155.83, 164.85 99.09, 200.69 57.86 M66.2 212.58 C99.59 174.16, 132.99 135.75, 200.69 57.86 M71.19 212.94 C101.32 178.28, 131.44 143.62, 200.43 64.26 M71.19 212.94 C102.85 176.52, 134.5 140.1, 200.43 64.26 M76.83 212.54 C102.15 183.41, 127.47 154.29, 200.83 69.9 M76.83 212.54 C104.57 180.63, 132.31 148.73, 200.83 69.9 M81.82 212.9 C110.16 180.3, 138.5 147.69, 200.57 76.3 M81.82 212.9 C127.82 159.98, 173.83 107.06, 200.57 76.3 M87.46 212.51 C110.15 186.4, 132.85 160.3, 200.3 82.7 M87.46 212.51 C122.75 171.91, 158.04 131.32, 200.3 82.7 M92.45 212.87 C117.09 184.53, 141.72 156.18, 200.7 88.34 M92.45 212.87 C128.64 171.24, 164.83 129.61, 200.7 88.34 M97.44 213.23 C137.77 166.83, 178.09 120.44, 200.44 94.74 M97.44 213.23 C121.06 186.05, 144.68 158.88, 200.44 94.74 M103.08 212.83 C129.39 182.57, 155.69 152.31, 200.83 100.38 M103.08 212.83 C122.81 190.13, 142.54 167.44, 200.83 100.38 M108.07 213.19 C127.02 191.38, 145.98 169.58, 200.57 106.78 M108.07 213.19 C142.03 174.13, 175.99 135.06, 200.57 106.78 M113.71 212.8 C137.77 185.13, 161.82 157.45, 200.31 113.18 M113.71 212.8 C142.81 179.32, 171.91 145.85, 200.31 113.18 M118.7 213.16 C148.71 178.63, 178.73 144.09, 200.7 118.82 M118.7 213.16 C143.25 184.91, 167.81 156.66, 200.7 118.82 M124.34 212.76 C148.2 185.32, 172.06 157.87, 200.44 125.22 M124.34 212.76 C140.51 194.16, 156.68 175.56, 200.44 125.22 M129.33 213.12 C157.57 180.64, 185.8 148.15, 200.84 130.86 M129.33 213.12 C149.29 190.15, 169.26 167.18, 200.84 130.86 M134.97 212.73 C153.44 191.48, 171.9 170.24, 200.58 137.26 M134.97 212.73 C157.06 187.32, 179.14 161.92, 200.58 137.26 M139.96 213.09 C158.48 191.78, 177 170.48, 200.31 143.66 M139.96 213.09 C160.43 189.53, 180.91 165.98, 200.31 143.66 M145.6 212.69 C158.4 197.97, 171.2 183.25, 200.71 149.3 M145.6 212.69 C164.53 190.92, 183.45 169.15, 200.71 149.3 M150.59 213.05 C166.17 195.13, 181.75 177.2, 200.45 155.7 M150.59 213.05 C170.12 190.58, 189.66 168.1, 200.45 155.7 M156.23 212.66 C167.9 199.23, 179.57 185.81, 200.84 161.34 M156.23 212.66 C169.51 197.38, 182.79 182.11, 200.84 161.34 M162.53 211.51 C174.21 198.07, 185.9 184.63, 199.27 169.25 M162.53 211.51 C174.62 197.6, 186.71 183.69, 199.27 169.25 M168.83 210.36 C174.91 203.37, 180.99 196.37, 197.7 177.15 M168.83 210.36 C180.19 197.29, 191.56 184.22, 197.7 177.15 M178.41 205.44 C182.97 200.19, 187.54 194.93, 198.75 182.04 M178.41 205.44 C184.97 197.89, 191.53 190.34, 198.75 182.04" stroke="#fd7e14" stroke-width="0.5" fill="none"></path><path d="M49.5 0 M49.5 0 C85.73 0, 121.95 0, 148.5 0 M49.5 0 C74.8 0, 100.11 0, 148.5 0 M148.5 0 C181.5 0, 198 16.5, 198 49.5 M148.5 0 C181.5 0, 198 16.5, 198 49.5 M198 49.5 C198 92.94, 198 136.38, 198 162.5 M198 49.5 C198 82.3, 198 115.1, 198 162.5 M198 162.5 C198 195.5, 181.5 212, 148.5 212 M198 162.5 C198 195.5, 181.5 212, 148.5 212 M148.5 212 C124.18 212, 99.87 212, 49.5 212 M148.5 212 C126.89 212, 105.29 212, 49.5 212 M49.5 212 C16.5 212, 0 195.5, 0 162.5 M49.5 212 C16.5 212, 0 195.5, 0 162.5 M0 162.5 C0 138.51, 0 114.52, 0 49.5 M0 162.5 C0 129.52, 0 96.53, 0 49.5 M0 49.5 C0 16.5, 16.5 0, 49.5 0 M0 49.5 C0 16.5, 16.5 0, 49.5 0" stroke="#000000" stroke-width="1" fill="none"></path></g><g transform="translate(33.33203125 143.380859375) rotate(0 75 17)"><text x="0" y="27" font-family="Cascadia, Segoe UI Emoji" font-size="28px" fill="#000000" text-anchor="start" style="white-space: pre;" direction="ltr">Svelte.js</text></g><g transform="translate(282.56640625 136.880859375) rotate(0 71.5 24)"><text x="71.5" y="20" font-family="Cascadia, Segoe UI Emoji" font-size="20px" fill="#000000" text-anchor="middle" style="white-space: pre;" direction="ltr">pre-compiled</text><text x="71.5" y="44" font-family="Cascadia, Segoe UI Emoji" font-size="20px" fill="#000000" text-anchor="middle" style="white-space: pre;" direction="ltr">runtime code</text></g><g transform="translate(1211.65234375 121.638671875) rotate(0 66.5 33.5)"><text x="0" y="27.5" font-family="Cascadia, Segoe UI Emoji" font-size="28px" fill="#000000" text-anchor="start" style="white-space: pre;" direction="ltr">Vue.js</text><text x="0" y="61" font-family="Cascadia, Segoe UI Emoji" font-size="28px" fill="#000000" text-anchor="start" style="white-space: pre;" direction="ltr">React.js</text></g><g stroke-linecap="round" transform="translate(454.2109375 66.287109375) rotate(0 93.6328125 95.716796875)"><path d="M21.56 34.64 C21.56 34.64, 21.56 34.64, 21.56 34.64 M21.56 34.64 C21.56 34.64, 21.56 34.64, 21.56 34.64 M12.11 51.61 C18.21 44.6, 24.3 37.59, 42.29 16.89 M12.11 51.61 C22.46 39.7, 32.81 27.8, 42.29 16.89 M9.23 61.02 C21.61 46.77, 34 32.52, 51.22 12.72 M9.23 61.02 C20 48.63, 30.77 36.24, 51.22 12.72 M6.34 70.44 C24.63 49.4, 42.92 28.36, 59.48 9.31 M6.34 70.44 C24.24 49.85, 42.14 29.26, 59.48 9.31 M4.11 79.1 C29.11 50.34, 54.11 21.58, 67.75 5.89 M4.11 79.1 C28.21 51.38, 52.31 23.65, 67.75 5.89 M1.88 87.76 C19.98 66.94, 38.08 46.12, 76.02 2.48 M1.88 87.76 C24.63 61.6, 47.37 35.44, 76.02 2.48 M0.31 95.67 C29.64 61.93, 58.97 28.18, 82.32 1.33 M0.31 95.67 C27.21 64.73, 54.11 33.78, 82.32 1.33 M0.7 101.31 C21.89 76.94, 43.08 52.57, 86.65 2.45 M0.7 101.31 C33.8 63.24, 66.89 25.17, 86.65 2.45 M1.75 106.2 C36.11 66.68, 70.46 27.17, 93.6 0.54 M1.75 106.2 C30.17 73.51, 58.59 40.82, 93.6 0.54 M2.81 111.09 C36.63 72.18, 70.45 33.28, 99.25 0.15 M2.81 111.09 C29.26 80.66, 55.71 50.23, 99.25 0.15 M3.86 115.98 C26.9 89.47, 49.95 62.96, 103.58 1.26 M3.86 115.98 C38.57 76.05, 73.28 36.11, 103.58 1.26 M4.91 120.87 C37.11 83.82, 69.32 46.76, 108.56 1.62 M4.91 120.87 C40.91 79.45, 76.91 38.04, 108.56 1.62 M5.96 125.76 C29.79 98.34, 53.62 70.93, 112.9 2.74 M5.96 125.76 C47.63 77.82, 89.29 29.89, 112.9 2.74 M7.66 129.89 C44.41 87.62, 81.16 45.35, 117.23 3.85 M7.66 129.89 C45.71 86.12, 83.76 42.35, 117.23 3.85 M9.37 134.02 C37.18 102.04, 64.98 70.05, 121.56 4.97 M9.37 134.02 C54.23 82.42, 99.09 30.81, 121.56 4.97 M11.08 138.16 C55.64 86.89, 100.2 35.63, 125.89 6.08 M11.08 138.16 C44.11 100.15, 77.15 62.15, 125.89 6.08 M12.78 142.29 C48.92 100.72, 85.06 59.15, 129.56 7.95 M12.78 142.29 C43.72 106.7, 74.66 71.11, 129.56 7.95 M15.15 145.67 C49.24 106.45, 83.34 67.23, 133.89 9.07 M15.15 145.67 C57 97.52, 98.86 49.37, 133.89 9.07 M16.85 149.8 C42.88 119.86, 68.9 89.93, 137.57 10.94 M16.85 149.8 C52.02 109.35, 87.19 68.89, 137.57 10.94 M19.22 153.18 C44.12 124.54, 69.02 95.89, 140.59 13.56 M19.22 153.18 C67.23 97.94, 115.25 42.71, 140.59 13.56 M21.58 156.56 C55.8 117.19, 90.03 77.82, 144.26 15.43 M21.58 156.56 C59.1 113.4, 96.61 70.25, 144.26 15.43 M23.94 159.94 C69.55 107.48, 115.15 55.01, 147.28 18.05 M23.94 159.94 C53.74 125.66, 83.55 91.37, 147.28 18.05 M26.96 162.56 C53.86 131.62, 80.75 100.68, 150.96 19.92 M26.96 162.56 C71.04 111.86, 115.11 61.16, 150.96 19.92 M29.98 165.19 C75.01 113.39, 120.03 61.59, 153.98 22.55 M29.98 165.19 C77.75 110.24, 125.52 55.29, 153.98 22.55 M33 167.81 C64.18 131.94, 95.36 96.07, 156.99 25.17 M33 167.81 C58.75 138.18, 84.51 108.55, 156.99 25.17 M35.36 171.19 C63.06 139.33, 90.75 107.48, 160.01 27.8 M35.36 171.19 C71.7 129.39, 108.04 87.59, 160.01 27.8 M39.04 173.06 C65 143.19, 90.97 113.31, 163.03 30.42 M39.04 173.06 C70.07 137.36, 101.11 101.66, 163.03 30.42 M42.06 175.68 C83.8 127.67, 125.54 79.65, 165.39 33.8 M42.06 175.68 C78.54 133.71, 115.03 91.74, 165.39 33.8 M45.73 177.55 C72.98 146.2, 100.24 114.85, 168.41 36.42 M45.73 177.55 C93.73 122.34, 141.72 67.13, 168.41 36.42 M48.75 180.18 C92.46 129.89, 136.17 79.61, 170.78 39.8 M48.75 180.18 C85.83 137.52, 122.91 94.86, 170.78 39.8 M52.42 182.05 C79.53 150.87, 106.64 119.68, 172.48 43.94 M52.42 182.05 C95.5 132.49, 138.58 82.93, 172.48 43.94 M56.1 183.92 C89.64 145.34, 123.17 106.76, 174.85 47.31 M56.1 183.92 C90.73 144.08, 125.37 104.23, 174.85 47.31 M59.77 185.79 C90.26 150.71, 120.75 115.64, 176.55 51.45 M59.77 185.79 C83.34 158.68, 106.9 131.57, 176.55 51.45 M63.45 187.66 C105.8 138.94, 148.14 90.23, 178.92 54.83 M63.45 187.66 C87.18 160.36, 110.9 133.07, 178.92 54.83 M67.78 188.77 C109.93 140.28, 152.08 91.79, 180.62 58.96 M67.78 188.77 C111.68 138.27, 155.59 87.76, 180.62 58.96 M72.11 189.89 C96.38 161.97, 120.64 134.05, 181.67 63.85 M72.11 189.89 C100.81 156.87, 129.52 123.84, 181.67 63.85 M76.44 191 C109.95 152.45, 143.46 113.9, 183.38 67.98 M76.44 191 C109.59 152.87, 142.73 114.74, 183.38 67.98 M81.43 191.36 C113.53 154.43, 145.63 117.5, 184.43 72.87 M81.43 191.36 C106.98 161.96, 132.54 132.57, 184.43 72.87 M85.76 192.48 C109.39 165.3, 133.01 138.12, 186.14 77.01 M85.76 192.48 C123.31 149.28, 160.85 106.09, 186.14 77.01 M90.75 192.84 C115.36 164.52, 139.97 136.21, 186.53 82.65 M90.75 192.84 C111.92 168.48, 133.1 144.12, 186.53 82.65 M95.73 193.2 C132.39 151.02, 169.06 108.85, 187.58 87.54 M95.73 193.2 C124.32 160.31, 152.91 127.43, 187.58 87.54 M102.69 191.29 C130.99 158.74, 159.29 126.18, 187.98 93.18 M102.69 191.29 C120.47 170.84, 138.25 150.39, 187.98 93.18 M108.99 190.14 C130.69 165.18, 152.38 140.22, 189.68 97.31 M108.99 190.14 C130.92 164.92, 152.84 139.69, 189.68 97.31 M113.32 191.26 C140.4 160.11, 167.47 128.96, 187.45 105.98 M113.32 191.26 C136.16 164.98, 159.01 138.7, 187.45 105.98 M121.59 187.84 C135.46 171.89, 149.32 155.93, 186.54 113.13 M121.59 187.84 C142.77 163.48, 163.95 139.11, 186.54 113.13 M129.85 184.43 C143.93 168.24, 158 152.05, 188.24 117.26 M129.85 184.43 C152.53 158.35, 175.2 132.26, 188.24 117.26 M138.12 181.02 C146.8 171.03, 155.48 161.05, 180.11 132.72 M138.12 181.02 C153.45 163.38, 168.79 145.74, 180.11 132.72 M152.95 170.06 C162.6 158.95, 172.26 147.85, 177.22 142.13 M152.95 170.06 C162.36 159.24, 171.76 148.41, 177.22 142.13" stroke="#228be6" stroke-width="0.5" fill="none"></path><path d="M187.27 95.72 C187.27 98.84, 187.11 101.99, 186.81 105.1 C186.51 108.21, 186.06 111.32, 185.47 114.39 C184.87 117.46, 184.12 120.51, 183.23 123.5 C182.35 126.49, 181.31 129.46, 180.14 132.35 C178.97 135.24, 177.65 138.08, 176.21 140.84 C174.77 143.6, 173.19 146.29, 171.49 148.89 C169.79 151.49, 167.95 154.02, 166.01 156.44 C164.07 158.86, 162 161.19, 159.84 163.4 C157.68 165.61, 155.4 167.72, 153.03 169.71 C150.67 171.69, 148.2 173.56, 145.65 175.3 C143.11 177.04, 140.47 178.66, 137.77 180.13 C135.07 181.61, 132.29 182.95, 129.46 184.15 C126.64 185.34, 123.74 186.4, 120.81 187.31 C117.89 188.22, 114.9 188.98, 111.9 189.59 C108.9 190.2, 105.85 190.67, 102.81 190.97 C99.77 191.28, 96.69 191.43, 93.63 191.43 C90.57 191.43, 87.5 191.28, 84.46 190.97 C81.41 190.67, 78.37 190.2, 75.37 189.59 C72.37 188.98, 69.38 188.22, 66.45 187.31 C63.53 186.4, 60.63 185.34, 57.8 184.15 C54.97 182.95, 52.19 181.61, 49.49 180.13 C46.8 178.66, 44.16 177.04, 41.61 175.3 C39.07 173.56, 36.6 171.69, 34.23 169.71 C31.87 167.72, 29.59 165.61, 27.42 163.4 C25.26 161.19, 23.19 158.86, 21.25 156.44 C19.31 154.02, 17.48 151.49, 15.78 148.89 C14.08 146.29, 12.5 143.6, 11.06 140.84 C9.61 138.08, 8.3 135.24, 7.13 132.35 C5.96 129.46, 4.92 126.49, 4.03 123.5 C3.14 120.51, 2.4 117.46, 1.8 114.39 C1.2 111.32, 0.75 108.21, 0.45 105.1 C0.15 101.99, 0 98.84, 0 95.72 C0 92.59, 0.15 89.45, 0.45 86.33 C0.75 83.22, 1.2 80.11, 1.8 77.04 C2.4 73.98, 3.14 70.92, 4.03 67.93 C4.92 64.94, 5.96 61.98, 7.13 59.09 C8.3 56.2, 9.61 53.35, 11.06 50.6 C12.5 47.84, 14.08 45.14, 15.78 42.54 C17.48 39.94, 19.31 37.41, 21.25 34.99 C23.19 32.58, 25.26 30.25, 27.42 28.03 C29.59 25.82, 31.87 23.71, 34.23 21.73 C36.6 19.74, 39.07 17.87, 41.61 16.13 C44.16 14.39, 46.8 12.78, 49.49 11.3 C52.19 9.83, 54.97 8.48, 57.8 7.29 C60.63 6.09, 63.53 5.03, 66.45 4.12 C69.38 3.21, 72.37 2.45, 75.37 1.84 C78.37 1.23, 81.41 0.77, 84.46 0.46 C87.5 0.15, 90.57 0, 93.63 0 C96.69 0, 99.77 0.15, 102.81 0.46 C105.85 0.77, 108.9 1.23, 111.9 1.84 C114.9 2.45, 117.89 3.21, 120.81 4.12 C123.74 5.03, 126.64 6.09, 129.46 7.29 C132.29 8.48, 135.07 9.83, 137.77 11.3 C140.47 12.78, 143.11 14.39, 145.65 16.13 C148.2 17.87, 150.67 19.74, 153.03 21.73 C155.4 23.71, 157.68 25.82, 159.84 28.03 C162 30.25, 164.07 32.58, 166.01 34.99 C167.95 37.41, 169.79 39.94, 171.49 42.54 C173.19 45.14, 174.77 47.84, 176.21 50.6 C177.65 53.35, 178.97 56.2, 180.14 59.09 C181.31 61.98, 182.35 64.94, 183.23 67.93 C184.12 70.92, 184.87 73.98, 185.47 77.04 C186.06 80.11, 186.51 83.22, 186.81 86.33 C187.11 89.45, 187.19 94.15, 187.27 95.72 C187.34 97.28, 187.34 94.15, 187.27 95.72" stroke="#000000" stroke-width="1" fill="none"></path></g><g transform="translate(491.1484375 131.025390625) rotate(0 58 33.5)"><text x="58" y="27.5" font-family="Cascadia, Segoe UI Emoji" font-size="28px" fill="#000000" text-anchor="middle" style="white-space: pre;" direction="ltr">BROWSER</text><text x="58" y="61" font-family="Cascadia, Segoe UI Emoji" font-size="28px" fill="#000000" text-anchor="middle" style="white-space: pre;" direction="ltr">DOM</text></g><g stroke-linecap="round"><g transform="translate(189.00781250000006 162.32942786550893) rotate(0 45.27539062499997 0.24667924518752216)"><path d="M0 0 C15.09 0.08, 75.46 0.41, 90.55 0.49 M0 0 C15.09 0.08, 75.46 0.41, 90.55 0.49" stroke="#000000" stroke-width="2" fill="none"></path></g><g transform="translate(189.00781250000006 162.32942786550893) rotate(0 45.27539062499997 0.24667924518752216)"><path d="M90.55 0.49 L76.92 6.76 L76.99 -5.92 L90.55 0.49" stroke="none" stroke-width="0" fill="#000000" fill-rule="evenodd"></path><path d="M90.55 0.49 C86.48 2.36, 82.41 4.23, 76.92 6.76 M90.55 0.49 C87.42 1.93, 84.28 3.37, 76.92 6.76 M76.92 6.76 C76.94 4.01, 76.95 1.27, 76.99 -5.92 M76.92 6.76 C76.95 1.76, 76.98 -3.24, 76.99 -5.92 M76.99 -5.92 C80.93 -4.06, 84.87 -2.19, 90.55 0.49 M76.99 -5.92 C81.59 -3.75, 86.18 -1.57, 90.55 0.49 M90.55 0.49 C90.55 0.49, 90.55 0.49, 90.55 0.49 M90.55 0.49 C90.55 0.49, 90.55 0.49, 90.55 0.49" stroke="#000000" stroke-width="2" fill="none"></path></g></g><g stroke-linecap="round"><g transform="translate(398.9868557977484 132.099609375) rotate(0 29.01596558886564 -9.10853964374084)"><path d="M0 0 C2.86 -3.37, 7.48 -20.58, 17.16 -20.24 C26.83 -19.9, 51.22 -1.68, 58.03 2.03" stroke="#000000" stroke-width="2.5" fill="none" stroke-dasharray="8 10"></path></g><g transform="translate(398.9868557977484 132.099609375) rotate(0 29.01596558886564 -9.10853964374084)"><path d="M58.03 2.03 L43.16 0.06 L49.98 -10.63 L58.03 2.03" stroke="none" stroke-width="0" fill="#000000" fill-rule="evenodd"></path><path d="M58.03 2.03 C52.88 1.35, 47.73 0.67, 43.16 0.06 M43.16 0.06 C45.53 -3.66, 47.91 -7.38, 49.98 -10.63 M49.98 -10.63 C52.04 -7.4, 54.09 -4.17, 58.03 2.03 M58.03 2.03 C58.03 2.03, 58.03 2.03, 58.03 2.03" stroke="#000000" stroke-width="2.5" fill="none"></path></g></g><g transform="translate(188.48828125 112.455078125) rotate(0 33 22)"><text x="33" y="16" font-family="Cascadia, Segoe UI Emoji" font-size="16px" fill="#000000" text-anchor="middle" style="white-space: pre;" direction="ltr">build</text><text x="33" y="38" font-family="Cascadia, Segoe UI Emoji" font-size="16px" fill="#000000" text-anchor="middle" style="white-space: pre;" direction="ltr">（必須）</text></g><g stroke-linecap="round"><g transform="translate(991.4351645797528 158.8579699894088) rotate(0 111.54734308056152 -55.92133582393146)"><path d="M0 0 C37 -0.23, 208.32 14.31, 222.01 -1.4 C235.7 -17.12, 115.56 -74.89, 82.14 -94.28 C48.71 -113.67, 31.57 -113.84, 21.45 -117.75" stroke="#000000" stroke-width="2.5" fill="none" stroke-dasharray="8 10"></path></g><g transform="translate(991.4351645797528 158.8579699894088) rotate(0 111.54734308056152 -55.92133582393146)"><path d="M0 0 L13.8 -5.89 L13.38 6.78 L0 0" stroke="none" stroke-width="0" fill="#000000" fill-rule="evenodd"></path><path d="M0 0 C5.32 -2.27, 10.64 -4.54, 13.8 -5.89 M13.8 -5.89 C13.65 -1.57, 13.51 2.74, 13.38 6.78 M13.38 6.78 C10.65 5.4, 7.93 4.02, 0 0 M0 0 C0 0, 0 0, 0 0" stroke="#000000" stroke-width="2.5" fill="none"></path></g></g><g transform="translate(957.1094130882645 10) rotate(0 33 22)"><text x="33" y="16" font-family="Cascadia, Segoe UI Emoji" font-size="16px" fill="#000000" text-anchor="middle" style="white-space: pre;" direction="ltr">build</text><text x="33" y="38" font-family="Cascadia, Segoe UI Emoji" font-size="16px" fill="#000000" text-anchor="middle" style="white-space: pre;" direction="ltr">（任意）</text></g><g transform="translate(804.72265625 123.162109375) rotate(0 88.5 24)"><text x="88.5" y="20" font-family="Cascadia, Segoe UI Emoji" font-size="20px" fill="#000000" text-anchor="middle" style="white-space: pre;" direction="ltr">(pre-optimized)</text><text x="88.5" y="44" font-family="Cascadia, Segoe UI Emoji" font-size="20px" fill="#000000" text-anchor="middle" style="white-space: pre;" direction="ltr">runtime code</text></g><g stroke-linecap="round"><g transform="translate(965.6879774521997 40.49926177405564) rotate(0 -75.3275357266973 40.251266922386264)"><path d="M0 0 C-17.6 1.07, -80.65 0.07, -105.58 6.43 C-130.51 12.8, -144.34 25.84, -149.59 38.19 C-154.83 50.53, -139.16 73.45, -137.07 80.5" stroke="#000000" stroke-width="2.5" fill="none" stroke-dasharray="8 10"></path></g><g transform="translate(965.6879774521997 40.49926177405564) rotate(0 -75.3275357266973 40.251266922386264)"><path d="M-137.07 80.5 L-148.55 70.85 L-137.06 65.5 L-137.07 80.5" stroke="none" stroke-width="0" fill="#000000" fill-rule="evenodd"></path><path d="M-137.07 80.5 C-140.09 77.96, -143.12 75.42, -148.55 70.85 M-148.55 70.85 C-146.03 69.68, -143.51 68.5, -137.06 65.5 M-137.06 65.5 C-137.06 70.75, -137.07 76, -137.07 80.5 M-137.07 80.5 C-137.07 80.5, -137.07 80.5, -137.07 80.5" stroke="#000000" stroke-width="2.5" fill="none"></path></g></g><g transform="translate(864.49609375 267.017578125) rotate(0 38.5 15)"><text x="38.5" y="23" font-family="Cascadia, Segoe UI Emoji" font-size="20px" fill="#000000" text-anchor="middle" style="white-space: pre;" direction="ltr">仮想DOM</text></g><g transform="translate(857.921875 214.271484375) rotate(0 34 10)"><text x="34" y="16" font-family="Cascadia, Segoe UI Emoji" font-size="16px" fill="#000000" text-anchor="middle" style="white-space: pre;" direction="ltr">diffing</text></g><g transform="translate(361.72265625 65.287109375) rotate(0 57.5 19.5)"><text x="57.5" y="15.5" font-family="Cascadia, Segoe UI Emoji" font-size="16px" fill="#000000" text-anchor="middle" style="white-space: pre;" direction="ltr">Dom</text><text x="57.5" y="35" font-family="Cascadia, Segoe UI Emoji" font-size="16px" fill="#000000" text-anchor="middle" style="white-space: pre;" direction="ltr">Manipulation</text></g><g stroke-linecap="round"><g transform="translate(389.9249886406627 218.35658990589536) rotate(187.77743141987472 29.010376057376618 -9.104618148849227)"><path d="M0 0 C2.87 -3.37, 7.53 -20.58, 17.2 -20.24 C26.87 -19.9, 51.22 -1.68, 58.02 2.04" stroke="#000000" stroke-width="2.5" fill="none" stroke-dasharray="8 10"></path></g><g transform="translate(389.9249886406627 218.35658990589536) rotate(187.77743141987472 29.010376057376618 -9.104618148849227)"><path d="M58.02 2.04 L43.15 0.06 L49.98 -10.63 L58.02 2.04" stroke="none" stroke-width="0" fill="#000000" fill-rule="evenodd"></path><path d="M58.02 2.04 C52.25 1.27, 46.47 0.5, 43.15 0.06 M43.15 0.06 C44.82 -2.56, 46.5 -5.18, 49.98 -10.63 M49.98 -10.63 C52.59 -6.51, 55.2 -2.4, 58.02 2.04 M58.02 2.04 C58.02 2.04, 58.02 2.04, 58.02 2.04" stroke="#000000" stroke-width="2.5" fill="none"></path></g></g><g stroke-linecap="round"><g transform="translate(928.7576763779157 177.986328125) rotate(0 9.293389291398967 43.05397413712234)"><path d="M0 0 C3.05 6.93, 16.46 27.25, 18.31 41.6 C20.16 55.95, 12.29 78.69, 11.09 86.11" stroke="#000000" stroke-width="2.5" fill="none" stroke-dasharray="8 10"></path></g><g transform="translate(928.7576763779157 177.986328125) rotate(0 9.293389291398967 43.05397413712234)"><path d="M11.09 86.11 L8.09 71.41 L20.42 74.37 L11.09 86.11" stroke="none" stroke-width="0" fill="#000000" fill-rule="evenodd"></path><path d="M11.09 86.11 C10.43 82.89, 9.78 79.66, 8.09 71.41 M8.09 71.41 C12.03 72.35, 15.96 73.3, 20.42 74.37 M20.42 74.37 C18.42 76.88, 16.42 79.4, 11.09 86.11 M11.09 86.11 C11.09 86.11, 11.09 86.11, 11.09 86.11" stroke="#000000" stroke-width="2.5" fill="none"></path></g></g><g stroke-linecap="round"><g transform="translate(872.8165229986973 264.048828125) rotate(0 -27.961527071799992 -44.6171875)"><path d="M0 0 C-8.96 -5.08, -46.25 -15.63, -53.78 -30.51 C-61.32 -45.38, -46.64 -79.45, -45.21 -89.23" stroke="#000000" stroke-width="2.5" fill="none" stroke-dasharray="8 10"></path></g><g transform="translate(872.8165229986973 264.048828125) rotate(0 -27.961527071799992 -44.6171875)"><path d="M-45.21 -89.23 L-42.71 -74.44 L-54.93 -77.81 L-45.21 -89.23" stroke="none" stroke-width="0" fill="#000000" fill-rule="evenodd"></path><path d="M-45.21 -89.23 C-44.69 -86.16, -44.17 -83.08, -42.71 -74.44 M-42.71 -74.44 C-47.57 -75.78, -52.44 -77.12, -54.93 -77.81 M-54.93 -77.81 C-51.6 -81.72, -48.27 -85.64, -45.21 -89.23 M-45.21 -89.23 C-45.21 -89.23, -45.21 -89.23, -45.21 -89.23" stroke="#000000" stroke-width="2.5" fill="none"></path></g></g><g stroke-linecap="round"><g transform="translate(798.03515625 151.9218344073861) rotate(0 -73.31817813971293 -0.3583932917675554)"><path d="M0 0 C-24.44 -0.12, -122.2 -0.6, -146.64 -0.72" stroke="#000000" stroke-width="2.5" fill="none" stroke-dasharray="8 10"></path></g><g transform="translate(798.03515625 151.9218344073861) rotate(0 -73.31817813971293 -0.3583932917675554)"><path d="M-146.64 -0.72 L-133.01 -6.99 L-133.07 5.69 L-146.64 -0.72" stroke="none" stroke-width="0" fill="#000000" fill-rule="evenodd"></path><path d="M-146.64 -0.72 C-143.38 -2.22, -140.11 -3.72, -133.01 -6.99 M-133.01 -6.99 C-133.03 -3.33, -133.05 0.34, -133.07 5.69 M-133.07 5.69 C-135.99 4.31, -138.9 2.94, -146.64 -0.72 M-146.64 -0.72 C-146.64 -0.72, -146.64 -0.72, -146.64 -0.72" stroke="#000000" stroke-width="2.5" fill="none"></path></g></g><g transform="translate(668.3125 95.931640625) rotate(0 57.5 19.5)"><text x="57.5" y="15.5" font-family="Cascadia, Segoe UI Emoji" font-size="16px" fill="#000000" text-anchor="middle" style="white-space: pre;" direction="ltr">Dom</text><text x="57.5" y="35" font-family="Cascadia, Segoe UI Emoji" font-size="16px" fill="#000000" text-anchor="middle" style="white-space: pre;" direction="ltr">Manipulation</text></g></svg>